%TF.GenerationSoftware,KiCad,Pcbnew,7.0.5*%
%TF.CreationDate,2023-06-16T14:54:11+02:00*%
%TF.ProjectId,carte_interface_connecteur_grove_pour_capteur,63617274-655f-4696-9e74-657266616365,rev?*%
%TF.SameCoordinates,Original*%
%TF.FileFunction,Legend,Bot*%
%TF.FilePolarity,Positive*%
%FSLAX46Y46*%
G04 Gerber Fmt 4.6, Leading zero omitted, Abs format (unit mm)*
G04 Created by KiCad (PCBNEW 7.0.5) date 2023-06-16 14:54:11*
%MOMM*%
%LPD*%
G01*
G04 APERTURE LIST*
%ADD10C,0.100000*%
%ADD11C,0.150000*%
%ADD12C,0.120000*%
G04 APERTURE END LIST*
D10*
%TO.C,J1*%
X122165333Y-233561419D02*
X122165333Y-234275704D01*
X122165333Y-234275704D02*
X122212952Y-234418561D01*
X122212952Y-234418561D02*
X122308190Y-234513800D01*
X122308190Y-234513800D02*
X122451047Y-234561419D01*
X122451047Y-234561419D02*
X122546285Y-234561419D01*
X121165333Y-234561419D02*
X121736761Y-234561419D01*
X121451047Y-234561419D02*
X121451047Y-233561419D01*
X121451047Y-233561419D02*
X121546285Y-233704276D01*
X121546285Y-233704276D02*
X121641523Y-233799514D01*
X121641523Y-233799514D02*
X121736761Y-233847133D01*
D11*
%TO.C,C2*%
X123914666Y-223563580D02*
X123962285Y-223611200D01*
X123962285Y-223611200D02*
X124105142Y-223658819D01*
X124105142Y-223658819D02*
X124200380Y-223658819D01*
X124200380Y-223658819D02*
X124343237Y-223611200D01*
X124343237Y-223611200D02*
X124438475Y-223515961D01*
X124438475Y-223515961D02*
X124486094Y-223420723D01*
X124486094Y-223420723D02*
X124533713Y-223230247D01*
X124533713Y-223230247D02*
X124533713Y-223087390D01*
X124533713Y-223087390D02*
X124486094Y-222896914D01*
X124486094Y-222896914D02*
X124438475Y-222801676D01*
X124438475Y-222801676D02*
X124343237Y-222706438D01*
X124343237Y-222706438D02*
X124200380Y-222658819D01*
X124200380Y-222658819D02*
X124105142Y-222658819D01*
X124105142Y-222658819D02*
X123962285Y-222706438D01*
X123962285Y-222706438D02*
X123914666Y-222754057D01*
X123533713Y-222754057D02*
X123486094Y-222706438D01*
X123486094Y-222706438D02*
X123390856Y-222658819D01*
X123390856Y-222658819D02*
X123152761Y-222658819D01*
X123152761Y-222658819D02*
X123057523Y-222706438D01*
X123057523Y-222706438D02*
X123009904Y-222754057D01*
X123009904Y-222754057D02*
X122962285Y-222849295D01*
X122962285Y-222849295D02*
X122962285Y-222944533D01*
X122962285Y-222944533D02*
X123009904Y-223087390D01*
X123009904Y-223087390D02*
X123581332Y-223658819D01*
X123581332Y-223658819D02*
X122962285Y-223658819D01*
%TO.C,C1*%
X123914666Y-221063580D02*
X123962285Y-221111200D01*
X123962285Y-221111200D02*
X124105142Y-221158819D01*
X124105142Y-221158819D02*
X124200380Y-221158819D01*
X124200380Y-221158819D02*
X124343237Y-221111200D01*
X124343237Y-221111200D02*
X124438475Y-221015961D01*
X124438475Y-221015961D02*
X124486094Y-220920723D01*
X124486094Y-220920723D02*
X124533713Y-220730247D01*
X124533713Y-220730247D02*
X124533713Y-220587390D01*
X124533713Y-220587390D02*
X124486094Y-220396914D01*
X124486094Y-220396914D02*
X124438475Y-220301676D01*
X124438475Y-220301676D02*
X124343237Y-220206438D01*
X124343237Y-220206438D02*
X124200380Y-220158819D01*
X124200380Y-220158819D02*
X124105142Y-220158819D01*
X124105142Y-220158819D02*
X123962285Y-220206438D01*
X123962285Y-220206438D02*
X123914666Y-220254057D01*
X122962285Y-221158819D02*
X123533713Y-221158819D01*
X123247999Y-221158819D02*
X123247999Y-220158819D01*
X123247999Y-220158819D02*
X123343237Y-220301676D01*
X123343237Y-220301676D02*
X123438475Y-220396914D01*
X123438475Y-220396914D02*
X123533713Y-220444533D01*
D10*
%TO.C,J1*%
X125332000Y-230104000D02*
X125332000Y-226504000D01*
X125332000Y-226504000D02*
X124332000Y-226504000D01*
X124332000Y-230104000D02*
X124332000Y-226504000D01*
X123332000Y-230104000D02*
X123332000Y-226504000D01*
X123332000Y-226504000D02*
X122332000Y-226504000D01*
X122332000Y-230104000D02*
X122332000Y-226504000D01*
X121332000Y-230104000D02*
X121332000Y-226504000D01*
X121332000Y-226504000D02*
X120332000Y-226504000D01*
X120332000Y-230104000D02*
X120332000Y-226504000D01*
X119332000Y-230104000D02*
X119332000Y-226504000D01*
X119332000Y-226504000D02*
X118332000Y-226504000D01*
X118332000Y-230104000D02*
X118332000Y-226504000D01*
X127832000Y-230104000D02*
X115832000Y-230104000D01*
X115832000Y-230104000D02*
X115832000Y-238404000D01*
X115832000Y-238404000D02*
X127832000Y-238404000D01*
X127832000Y-238404000D02*
X127832000Y-230104000D01*
D12*
%TO.C,C2*%
X124248000Y-225554000D02*
X123248000Y-225554000D01*
X123248000Y-223854000D02*
X124248000Y-223854000D01*
%TO.C,C1*%
X124248000Y-223054000D02*
X123248000Y-223054000D01*
X123248000Y-221354000D02*
X124248000Y-221354000D01*
%TD*%
M02*
